Coordinates
version=1
nRows=24
nColumns=24
inDegrees=yes

Units are S.I. units (second, meters, Newtons, ...)
Angles are in degrees.

endheader
time	pelvis_tilt	pelvis_list	pelvis_rotation	pelvis_tx	pelvis_ty	pelvis_tz	hip_flexion_r	hip_adduction_r	hip_rotation_r	knee_angle_r	ankle_angle_r	subtalar_angle_r	mtp_angle_r	hip_flexion_l	hip_adduction_l	hip_rotation_l	knee_angle_l	ankle_angle_l	subtalar_angle_l	mtp_angle_l	lumbar_extension	lumbar_bending	lumbar_rotation
      1.22066667	     -0.74107369	      9.13904086	     -4.89619172	      0.16036636	      1.00442359	      0.31182008	     16.03349625	    -11.92060136	      0.17951479	    -68.40233026	     -8.80634771	     -5.92311045	     12.09150199	      8.59613572	     14.74346027	      5.52079211	    -13.01026284	      3.74500345	    -18.92437957	     -1.99981775	    -12.41341481	     -4.17078881	      0.03459083
      1.22483333	     -0.69417922	      8.94459763	     -4.94085619	      0.16541088	      1.00540754	      0.31178124	     16.51940026	    -11.63770110	      0.20084399	    -68.15681398	     -7.83306790	     -6.09862521	     11.91780165	      7.98081921	     14.56277919	      5.64923856	    -12.55525012	      3.76908368	    -18.92611915	     -2.05202081	    -12.48290842	     -3.87843874	     -0.26475903
      1.22900000	     -0.67026639	      8.74375469	     -4.96311965	      0.17043075	      1.00634164	      0.31172056	     17.01303285	    -11.34605140	      0.18956142	    -67.85221274	     -6.90455047	     -6.40524156	     11.60842548	      7.39826694	     14.37522031	      5.79040152	    -12.11580134	      3.73632573	    -18.98351595	     -2.14491170	    -12.53603009	     -3.56645391	     -0.55094336
      1.23316667	     -0.64423233	      8.54272117	     -4.98656736	      0.17543397	      1.00726458	      0.31168938	     17.48757810	    -11.04112981	      0.19024143	    -67.47894285	     -5.99061813	     -6.67886283	     11.17692106	      6.81417663	     14.18464957	      5.94174240	    -11.67533663	      3.70409265	    -19.03388330	     -2.27639286	    -12.61134230	     -3.29318984	     -0.80533463
      1.23733333	     -0.69138749	      8.33035036	     -5.01018783	      0.18043629	      1.00804238	      0.31165693	     18.03111047	    -10.70955018	      0.19406563	    -67.05164287	     -5.12537548	     -6.96838450	     11.11310592	      6.34010201	     13.96929223	      5.99524352	    -11.29796190	      3.74451590	    -18.99127320	     -2.29799681	    -12.59214569	     -2.99621306	     -0.85631240
      1.24150000	     -0.68289434	      8.10981079	     -5.01846270	      0.18544238	      1.00890408	      0.31161794	     18.48205998	    -10.37931680	      0.16521473	    -66.54386195	     -4.26755718	     -7.26899442	     11.04179026	      5.79581749	     13.75041594	      6.07799150	    -10.90316242	      3.76203336	    -18.95645563	     -2.32251384	    -12.63389274	     -2.69307020	     -1.00038499
      1.24566667	     -0.63558528	      7.88425013	     -5.01306164	      0.19048121	      1.00979158	      0.31153954	     18.86274304	    -10.05727214	      0.10693073	    -65.96266524	     -3.50378687	     -7.54773020	     10.81401550	      5.17498576	     13.53671433	      6.26793726	    -10.44442004	      3.76234689	    -19.00515578	     -2.39480939	    -12.71385046	     -2.33153894	     -1.39576288
      1.24983333	     -0.61270837	      7.69705149	     -4.99518660	      0.19546880	      1.01058260	      0.31146259	     19.27092491	     -9.77064610	      0.05469064	    -65.35520599	     -2.68539945	     -7.87131561	     10.17819151	      4.60028648	     13.36171049	      6.46684895	    -10.00835517	      3.67295377	    -19.11926116	     -2.59443213	    -12.79580634	     -2.04001559	     -1.75605062
      1.25400000	     -0.65030596	      7.45913072	     -4.98063073	      0.20047787	      1.01128623	      0.31141268	     19.71138828	     -9.41150264	      0.00479530	    -64.66338478	     -1.91384617	     -8.14037057	     10.10215600	      4.12573103	     13.11646874	      6.52524798	     -9.65745024	      3.72597249	    -19.05462010	     -2.61911826	    -12.78763981	     -1.71964418	     -1.77681891
      1.25816667	     -0.58239029	      7.23510317	     -4.94698759	      0.20551276	      1.01210680	      0.31135662	     20.00555101	     -9.08582306	     -0.07661414	    -63.89961677	     -1.21807462	     -8.49016457	      9.72273647	      3.50535012	     12.89687183	      6.68230390	     -9.24222276	      3.73994879	    -19.02851644	     -2.73478883	    -12.90497766	     -1.40387771	     -2.14453577
      1.26233333	     -0.61030743	      7.00165386	     -4.90277199	      0.21053905	      1.01275329	      0.31126357	     20.39237200	     -8.73968191	     -0.15463645	    -63.10051185	     -0.44145862	     -8.70507333	      5.65439974	      2.99762066	     12.66654218	      6.89705487	     -8.85315866	      3.77280300	    -19.17092887	     -3.93949000	    -12.90285394	     -1.07053657	     -2.29091285
      1.26650000	     -0.60017511	      6.77081749	     -4.87068762	      0.21557633	      1.01342039	      0.31122026	     20.71605634	     -8.39280450	     -0.21828337	    -62.22365670	      0.19496501	     -8.98606881	      5.62809114	      2.47348799	     12.42580784	      6.93779159	     -8.49831580	      3.82863771	    -19.02749733	     -3.94065290	    -12.95208176	     -0.74119496	     -2.48540641
      1.27066667	     -0.60676110	      6.53746026	     -4.80985798	      0.22059880	      1.01401575	      0.31115504	     21.03288080	     -8.04617123	     -0.30337992	    -61.29530575	      0.85051117	     -9.27604683	      5.59999499	      1.98477159	     12.18431987	      7.01913716	     -8.18661188	      3.88260328	    -18.96433191	     -3.94488850	    -12.98773987	     -0.42886635	     -2.65082253
      1.27483333	     -0.57275364	      6.31954665	     -4.75160879	      0.22564671	      1.01461894	      0.31108848	     21.29144765	     -7.72288564	     -0.38409381	    -60.31550082	      1.41485890	     -9.59624972	      5.53055706	      1.42752775	     11.96146424	      7.15105170	     -7.81962818	      3.94845608	    -18.90415802	     -3.95694202	    -13.06315377	     -0.10065581	     -2.94856396
      1.27900000	     -0.60497544	      6.10412648	     -4.67439762	      0.23068145	      1.01507731	      0.31100966	     21.60415340	     -7.39758081	     -0.46789542	    -59.29208075	      2.00654401	     -9.85431652	      5.48039121	      0.97859741	     11.73570333	      7.24441351	     -7.52970539	      4.00560824	    -18.86556704	     -3.96760284	    -13.06146118	      0.20098325	     -3.11070536
      1.28316667	     -0.58708156	      5.89057653	     -4.60011482	      0.23574778	      1.01557675	      0.31094004	     21.83888564	     -7.07948808	     -0.54946944	    -58.20573479	      2.49157360	    -10.15943627	      5.38403750	      0.45221081	     11.51337446	      7.37479621	     -7.19075797	      4.08463689	    -18.81197363	     -3.98771893	    -13.11345072	      0.52093470	     -3.39659034
      1.28733333	     -0.59101761	      5.68952952	     -4.51464630	      0.24080016	      1.01597634	      0.31086825	     22.08492823	     -6.77430899	     -0.62824539	    -57.08243287	      2.97698034	    -10.42758789	      5.27155422	     -0.02833819	     11.30195547	      7.48976921	     -6.89512238	      4.16008288	    -18.76180674	     -4.01212412	    -13.14085810	      0.81495211	     -3.63860984
      1.29150000	     -0.58820349	      5.48545519	     -4.42174582	      0.24585263	      1.01634142	      0.31079258	     22.30168220	     -6.46879596	     -0.70780372	    -55.90615995	      3.42154582	    -10.69697201	      5.13947654	     -0.50652549	     11.08677776	      7.60444879	     -6.61970890	      4.24470566	    -18.70407079	     -4.04129067	    -13.18106521	      1.10869578	     -3.87633909
      1.29566667	     -0.61770138	      5.29114257	     -4.31640503	      0.25090623	      1.01661334	      0.31071060	     22.53648672	     -6.17663018	     -0.79155223	    -54.68764230	      3.85387766	    -10.90521175	      5.05197362	     -0.92742415	     10.87905905	      7.70024299	     -6.39081383	      4.32924321	    -18.65858648	     -4.06071910	    -13.18238456	      1.38635972	     -4.03241090
      1.29983333	     -0.63341144	      5.11590789	     -4.21541285	      0.25597267	      1.01684419	      0.31063657	     22.74539132	     -5.90575994	     -0.86056410	    -53.43311747	      4.22998412	    -11.13738220	      4.96000404	     -1.36917171	     10.69185895	      7.81345334	     -6.14513933	      4.41885734	    -18.60117644	     -4.08091634	    -13.19703563	      1.64551071	     -4.23351440
      1.30400000	     -0.61419706	      4.95113552	     -4.11754921	      0.26105693	      1.01706588	      0.31058279	     22.90136844	     -5.65116199	     -0.92875397	    -52.13573592	      4.50871723	    -11.40468832	      4.79540055	     -1.86217902	     10.51477254	      7.94413265	     -5.86777402	      4.52392074	    -18.54217744	     -4.11736979	    -13.24254759	      1.90120666	     -4.54232679
      1.30816667	     -0.65270844	      4.78892974	     -4.00012925	      0.26611367	      1.01714890	      0.31049832	     23.10327106	     -5.40272895	     -1.00222256	    -50.80385309	      4.83269133	    -11.56940192	      4.68068302	     -2.25108720	     10.33973137	      8.05828028	     -5.67931713	      4.61300770	    -18.50760810	     -4.14288140	    -13.23236792	      2.14374698	     -4.70774294
      1.31233333	     -0.65720651	      4.65876087	     -3.89949279	      0.27119610	      1.01720737	      0.31045638	     23.26253729	     -5.18591076	     -1.05229218	    -49.44591222	      5.05802738	    -11.80277086	      4.49351294	     -2.69797342	     10.19782354	      8.19404983	     -5.43870743	      4.70736731	    -18.46807855	     -4.18420678	    -13.24976657	      2.35302271	     -4.98333423
      1.31650000	     -0.68337448	      4.52919229	     -3.78449628	      0.27625734	      1.01719375	      0.31041213	     23.42496587	     -4.97128254	     -1.10305586	    -48.04730976	      5.29453054	    -11.98787092	      4.26102852	     -3.09695381	     10.05506193	      8.32987401	     -5.24963212	      4.78241152	    -18.43864079	     -4.23543657	    -13.25130073	      2.56062010	     -5.21725157
